#!OML:ASF E:\Steps\Project 1\Capture day 1\Session 2\Subject.ASF
:FULLY-SPECIFIED
:DEGREES
137
root 8.79444 16.322 31.0711 -155.264 -0.0740574 179.868
lowerback -27.2418 -1.05168 -4.96405
upperback -2.4127 -0.548256 -0.369629
thorax 12.4975 -0.808449 2.17297
lowerneck -4.8447 -4.94435 -3.50717
upperneck -10.5196 -5.06845 8.94568
head -2.18802 -2.21946 3.54495
rclavicle 1.09332e-015 -6.36111e-015
rhumerus -32.7179 -11.5548 -85.6853
rradius 34.1661
rwrist -0.909456
rhand -6.80908 -54.6588
rfingers 7.12502
rthumb 19.0544 -83.7454
lclavicle 1.09332e-015 -6.36111e-015
lhumerus -27.7619 -1.97098 85.8172
lradius 24.9385
lwrist -4.5059
lhand -20.476 -13.9766
lfingers 7.12502
lthumb 5.88023 15.9218
rfemur -22.9855 7.89424 18.2402
rtibia 8.82726
rfoot -19.8763 -6.80295
rtoes -30.1489
lfemur -22.1506 -8.43097 -18.5569
ltibia 7.74194
lfoot -8.99964 4.88007
ltoes -42.2053
138
root 8.7942 16.3226 31.0713 -155.227 -0.0639377 179.85
lowerback -27.2855 -1.08138 -5.0172
upperback -2.41737 -0.575612 -0.329776
thorax 12.518 -0.826232 2.2386
lowerneck -4.84695 -4.91449 -3.56978
upperneck -10.5288 -5.02688 8.94063
head -2.19217 -2.19667 3.55557
rclavicle -4.96962e-016 1.23246e-014
rhumerus -32.7043 -11.3801 -85.7114
rradius 34.158
rwrist -1.21397
rhand -7.46428 -54.8952
rfingers 7.12502
rthumb 18.4242 -84.0427
lclavicle -4.96962e-016 1.23246e-014
lhumerus -27.7507 -1.83562 85.8679
lradius 24.8286
lwrist -4.17692
lhand -20.5575 -13.2682
lfingers 7.12502
lthumb 5.80156 16.6324
rfemur -23.017 8.11149 18.1706
rtibia 8.82334
rfoot -19.9922 -7.00737
rtoes -29.9342
lfemur -22.2059 -8.30179 -18.6072
ltibia 7.77278
lfoot -8.99809 4.74937
ltoes -41.9689
139
root 8.79304 16.3217 31.0706 -155.245 -0.0771466 179.892
lowerback -27.2065 -1.07181 -4.97063
upperback -2.45683 -0.588874 -0.31057
thorax 12.4308 -0.829248 2.22975
lowerneck -4.85625 -4.88358 -3.61395
upperneck -10.4381 -4.99859 8.9401
head -2.16115 -2.18362 3.56106
rclavicle 3.42904e-015 -2.38542e-015
rhumerus -32.7647 -11.2394 -85.7161
rradius 34.1618
rwrist -1.32138
rhand -7.55104 -54.9255
rfingers 7.12502
rthumb 18.3408 -84.0808
lclavicle 3.42904e-015 -2.38542e-015
lhumerus -27.8813 -1.94353 85.9686
lradius 24.6792
lwrist -3.55303
lhand -21.2701 -13.4404
lfingers 7.12502
lthumb 5.11357 16.4779
rfemur -23.015 7.8942 18.2596
rtibia 8.84882
rfoot -20.0543 -6.75485
rtoes -29.7163
lfemur -22.1929 -8.24668 -18.577
ltibia 7.79729
lfoot -8.97642 4.72763
ltoes -42.5654
140
root 8.79097 16.3203 31.0665 -155.29 -0.0601471 179.926
lowerback -27.0983 -1.03169 -4.89381
upperback -2.5094 -0.570515 -0.328535
thorax 12.3097 -0.815041 2.17292
lowerneck -4.81594 -4.87217 -3.65676
upperneck -10.3307 -5.00008 8.97122
head -2.13064 -2.18844 3.57811
rclavicle -1.68967e-015 1.03368e-014
rhumerus -32.8481 -11.1887 -85.7202
rradius 34.0896
rwrist -1.33426
rhand -7.49646 -54.8085
rfingers 7.12502
rthumb 18.3933 -83.9589
lclavicle -1.68967e-015 1.03368e-014
lhumerus -27.9788 -1.80576 85.8986
lradius 24.484
lwrist -3.83068
lhand -21.5792 -13.6603
lfingers 7.12502
lthumb 4.81514 16.265
rfemur -22.9607 7.63784 18.3339
rtibia 8.84138
rfoot -20.0138 -6.46528
rtoes -29.7733
lfemur -22.1085 -8.30929 -18.541
ltibia 7.77065
lfoot -8.98256 4.82247
ltoes -43.0735
141
root 8.79457 16.3203 31.0708 -155.194 -0.12921 179.839
lowerback -27.0229 -1.08983 -5.04684
upperback -2.60094 -0.622811 -0.322592
thorax 12.1673 -0.848468 2.24932
lowerneck -4.80557 -4.8687 -3.69361
upperneck -10.2651 -5.00291 9.00586
head -2.10874 -2.19139 3.59551
rclavicle -4.96962e-016 4.25399e-014
rhumerus -32.8442 -11.2452 -85.6779
rradius 33.9289
rwrist -1.21622
rhand -7.18258 -54.0213
rfingers 7.12502
rthumb 18.6952 -83.1429
lclavicle -4.96962e-016 4.25399e-014
lhumerus -27.9927 -1.45942 85.7446
lradius 24.4007
lwrist -4.6823
lhand -21.0914 -13.28
lfingers 7.12502
lthumb 5.28609 16.6341
rfemur -23.0393 7.83091 18.217
rtibia 8.81373
rfoot -19.9115 -6.77599
rtoes -30.0688
lfemur -22.2828 -8.14987 -18.6318
ltibia 7.86704
lfoot -9.0515 4.48764
ltoes -42.3561
142
root 8.7922 16.3225 31.0645 -155.276 -0.0663224 179.82
lowerback -27.0477 -1.07301 -5.04572
upperback -2.53979 -0.586233 -0.340032
thorax 12.2489 -0.830032 2.24196
lowerneck -4.93175 -4.79131 -3.73074
upperneck -10.0841 -4.92133 8.95034
head -2.03226 -2.14854 3.5751
rclavicle 4.27387e-015 1.11319e-014
rhumerus -32.6927 -11.2833 -85.7013
rradius 33.7564
rwrist -1.23998
rhand -7.55888 -53.1427
rfingers 7.12502
rthumb 18.3332 -82.2987
lclavicle 4.27387e-015 1.11319e-014
lhumerus -27.9727 -1.32294 85.6737
lradius 24.4139
lwrist -5.02919
lhand -20.695 -12.6632
lfingers 7.12502
lthumb 5.66881 17.241
rfemur -22.9055 8.10326 18.1338
rtibia 8.77785
rfoot -19.8454 -7.02804
rtoes -30.0352
lfemur -22.1126 -8.17445 -18.6885
ltibia 7.76529
lfoot -9.09573 4.52594
ltoes -41.5273
143
root 8.79336 16.3253 31.068 -155.262 -0.153279 179.824
lowerback -27.1425 -1.09581 -5.00875
upperback -2.44089 -0.602466 -0.352679
thorax 12.4163 -0.834348 2.19916
lowerneck -5.08268 -4.76182 -3.73588
upperneck -9.98331 -4.88556 8.9401
head -1.97469 -2.12586 3.56553
rclavicle -9.93923e-017 2.78299e-015
rhumerus -32.404 -11.3836 -85.7728
rradius 33.5329
rwrist -1.36847
rhand -8.06415 -54.5748
rfingers 7.12502
rthumb 17.8471 -83.7758
lclavicle -9.93923e-017 2.78299e-015
lhumerus -27.8024 -1.30575 85.6302
lradius 24.4021
lwrist -4.93913
lhand -20.084 -12.032
lfingers 7.12502
lthumb 6.25872 17.8555
rfemur -22.926 8.17707 18.1413
rtibia 8.77919
rfoot -19.8048 -7.17708
rtoes -29.8759
lfemur -22.1838 -8.21906 -18.6423
ltibia 7.80879
lfoot -9.07265 4.50904
ltoes -41.5651
144
root 8.79207 16.3243 31.065 -155.297 -0.128735 179.867
lowerback -27.0045 -1.05997 -4.97569
upperback -2.51803 -0.587079 -0.326441
thorax 12.2515 -0.824803 2.2175
lowerneck -4.98346 -4.77902 -3.78641
upperneck -9.95511 -4.91661 8.98856
head -1.97837 -2.1459 3.59376
rclavicle -2.33572e-015 1.35174e-014
rhumerus -32.509 -11.4961 -85.6692
rradius 33.5337
rwrist -1.05994
rhand -7.89361 -55.2802
rfingers 7.12502
rthumb 18.0112 -84.4663
lclavicle -2.33572e-015 1.35174e-014
lhumerus -27.9788 -1.38999 85.735
lradius 24.3691
lwrist -4.40657
lhand -20.6007 -12.1442
lfingers 7.12502
lthumb 5.75983 17.7575
rfemur -22.8808 8.22194 18.1781
rtibia 8.76965
rfoot -19.8531 -7.15421
rtoes -30.3128
lfemur -22.1326 -8.27487 -18.5972
ltibia 7.81148
lfoot -9.0448 4.64703
ltoes -42.1128
145
root 8.79063 16.3228 31.0621 -155.305 -0.0705008 179.896
lowerback -27.1288 -1.04347 -4.97828
upperback -2.45715 -0.552572 -0.295377
thorax 12.3865 -0.811167 2.26604
lowerneck -4.99443 -4.76995 -3.81877
upperneck -9.98988 -4.89812 8.98482
head -1.98859 -2.13424 3.5994
rclavicle 0 -5.56597e-015
rhumerus -32.3946 -11.545 -85.6463
rradius 33.5108
rwrist -1.10243
rhand -7.8563 -54.8688
rfingers 7.12502
rthumb 18.0471 -84.0516
lclavicle 0 -5.56597e-015
lhumerus -27.9424 -1.57429 85.9132
lradius 24.2608
lwrist -3.50781
lhand -21.1277 -12.4365
lfingers 7.12502
lthumb 5.251 17.4784
rfemur -22.889 8.26137 18.193
rtibia 8.80707
rfoot -19.9477 -7.12801
rtoes -30.3881
lfemur -22.1124 -8.18322 -18.6104
ltibia 7.83608
lfoot -9.02747 4.68593
ltoes -42.4054
146
root 8.78736 16.3222 31.0588 -155.293 -0.0473241 179.913
lowerback -27.1764 -1.02318 -4.91945
upperback -2.45563 -0.541332 -0.303207
thorax 12.4123 -0.803828 2.2268
lowerneck -5.018 -4.7578 -3.84247
upperneck -9.93014 -4.88803 8.99488
head -1.96452 -2.12922 3.60515
rclavicle -2.93207e-015 -2.78299e-015
rhumerus -32.4025 -11.6241 -85.6069
rradius 33.5429
rwrist -0.755518
rhand -7.31771 -53.5718
rfingers 7.12502
rthumb 18.5652 -82.7059
lclavicle -2.93207e-015 -2.78299e-015
lhumerus -27.9767 -1.47082 85.8556
lradius 24.2298
lwrist -3.3751
lhand -20.8118 -12.4952
lfingers 7.12502
lthumb 5.55602 17.412
rfemur -22.9164 8.24936 18.1701
rtibia 8.81995
rfoot -20.0051 -7.11003
rtoes -30.0115
lfemur -22.0742 -8.36349 -18.568
ltibia 7.74177
lfoot -8.98903 4.88723
ltoes -42.1568
147
root 8.7912 16.3229 31.0647 -155.191 -0.112923 179.862
lowerback -27.1269 -1.05124 -4.98882
upperback -2.51862 -0.568504 -0.332206
thorax 12.3142 -0.82015 2.22386
lowerneck -5.05109 -4.77495 -3.81117
upperneck -9.89353 -4.91253 9.01208
head -1.94511 -2.14159 3.60289
rclavicle 3.62782e-015 3.97569e-016
rhumerus -32.4584 -11.589 -85.6736
rradius 33.5238
rwrist -0.944613
rhand -7.86632 -54.978
rfingers 7.12502
rthumb 18.0375 -84.1616
lclavicle 3.62782e-015 3.97569e-016
lhumerus -27.996 -1.15937 85.6242
lradius 24.2746
lwrist -4.03509
lhand -19.888 -12.9557
lfingers 7.12502
lthumb 6.44795 16.9262
rfemur -23.0342 8.22201 18.1562
rtibia 8.82285
rfoot -19.9786 -7.13753
rtoes -29.819
lfemur -22.2624 -8.2033 -18.6136
ltibia 7.8353
lfoot -9.01068 4.63799
ltoes -41.5789
148
root 8.78639 16.3242 31.0579 -155.322 -0.122073 179.863
lowerback -27.0653 -1.0297 -4.90215
upperback -2.45957 -0.550318 -0.377291
thorax 12.3486 -0.802475 2.12983
lowerneck -5.06289 -4.79767 -3.76226
upperneck -9.92095 -4.93624 9.03171
head -1.95114 -2.15324 3.60056
rclavicle 6.95746e-016 3.57812e-015
rhumerus -32.4387 -11.6153 -85.701
rradius 33.5186
rwrist -0.711021
rhand -7.73075 -55.3763
rfingers 7.12502
rthumb 18.1679 -84.5478
lclavicle 6.95746e-016 3.57812e-015
lhumerus -28.0097 -0.992543 85.4801
lradius 24.3255
lwrist -4.39267
lhand -19.6091 -12.6096
lfingers 7.12502
lthumb 6.71718 17.2639
rfemur -22.8206 8.12761 18.1463
rtibia 8.73207
rfoot -19.9396 -7.0654
rtoes -29.861
lfemur -22.104 -8.4489 -18.5964
ltibia 7.84383
lfoot -9.08103 4.86449
ltoes -41.0573
